<?xml version="1.0" encoding="iso-8859-1"?>
<!-- Generator: Adobe Illustrator 19.2.1, SVG Export Plug-In . SVG Version: 6.00 Build 0)  -->
<svg version="1.1" id="promo-promotion-discount-deal-percent-ribbon"
	 xmlns="http://www.w3.org/2000/svg" xmlns:xlink="http://www.w3.org/1999/xlink" x="0px" y="0px" viewBox="0 0 16 16"
	 style="enable-background:new 0 0 16 16;" xml:space="preserve">
<g>
	<path d="M15.895,7.553L15,5.764V4c0-0.379-0.214-0.725-0.553-0.895l-1.855-0.927l-1.885-1.885C10.459,0.045,10.1-0.055,9.757,0.03
		L8,0.469L6.243,0.03c-0.34-0.084-0.701,0.015-0.95,0.263L3.408,2.178L1.553,3.106C1.214,3.275,1,3.621,1,4v1.764L0.106,7.553
		c-0.141,0.282-0.141,0.613,0,0.895L1,10.236V12c0,0.379,0.214,0.725,0.553,0.894l1.855,0.927l1.885,1.885
		c0.248,0.248,0.608,0.347,0.95,0.263L8,15.531l1.757,0.439C9.838,15.99,9.919,16,10,16c0.262,0,0.517-0.103,0.707-0.293
		l1.885-1.885l1.855-0.927C14.786,12.725,15,12.379,15,12v-1.764l0.894-1.789C16.035,8.166,16.035,7.835,15.895,7.553z
		 M13.106,9.553C13.036,9.692,13,9.845,13,10v1.382l-1.447,0.724c-0.096,0.048-0.184,0.111-0.26,0.188l-1.6,1.6L8.243,13.53
		C8.163,13.51,8.082,13.5,8,13.5s-0.163,0.01-0.243,0.03l-1.451,0.363l-1.6-1.6c-0.076-0.076-0.163-0.139-0.26-0.188L3,11.382V10
		c0-0.155-0.036-0.309-0.106-0.447L2.118,8l0.776-1.553C2.964,6.309,3,6.156,3,6V4.618l1.447-0.724
		c0.096-0.048,0.184-0.111,0.26-0.188l1.6-1.6L7.757,2.47c0.159,0.04,0.326,0.04,0.485,0l1.451-0.363l1.6,1.6
		c0.076,0.076,0.163,0.139,0.26,0.188L13,4.618V6c0,0.155,0.036,0.309,0.106,0.447L13.882,8L13.106,9.553z"/>
	<rect x="3.757" y="7" transform="matrix(0.7071 -0.7071 0.7071 0.7071 -3.3138 7.9998)" width="8.485" height="2"/>
	<circle cx="6" cy="6" r="1"/>
	<circle cx="10" cy="10" r="1"/>
</g>
</svg>
