<?xml version="1.0" encoding="UTF-8"?>
<svg xmlns="http://www.w3.org/2000/svg" xmlns:xlink="http://www.w3.org/1999/xlink" width="96pt" height="96pt" viewBox="0 0 96 96" version="1.1">
<g id="surface13910889">
<rect x="0" y="0" width="96" height="96" style="fill:rgb(11.764706%,56.470588%,100%);fill-opacity:1;stroke:none;"/>
<path style=" stroke:none;fill-rule:nonzero;fill:rgb(100%,100%,100%);fill-opacity:1;" d="M 36 8 C 20.582031 8 8 20.582031 8 36 C 8 51.417969 20.582031 64 36 64 C 42.992188 64 49.378906 61.390625 54.296875 57.125 L 56 58.828125 L 56 64 L 80 88 L 88 80 L 64 56 L 58.828125 56 L 57.125 54.296875 C 61.390625 49.378906 64 42.992188 64 36 C 64 20.582031 51.417969 8 36 8 Z M 36 16 C 47.09375 16 56 24.90625 56 36 C 56 47.09375 47.09375 56 36 56 C 24.90625 56 16 47.09375 16 36 C 16 24.90625 24.90625 16 36 16 Z M 36 16 "/>
</g>
</svg>
